# xmcd CD database file
#
# Track frame offsets:
#	150
#	12204
#	31811
#	48706
#	69959
#	91854
#	117992
#	135480
#	149405
#	162510
#	181191
#	201756
#	230133
#
# Disc length: 3283 seconds
#
# Revision: 0
# Processed by: cddbd v1.5.2PL0 Copyright (c) Steve Scherf et al.
# Submitted via: CDex 1.51
#
DISCID=b00cd10d
DTITLE=Bob Henderson - Do it Again
DYEAR=2003
DGENRE=Jazz
TTITLE0=Topsy
TTITLE1=Old Grand Dad
TTITLE2=How Can You Face Me
TTITLE3=Do It Again
TTITLE4=If I Ruled The World
TTITLE5=Get Out Of Town
TTITLE6=It's Hard To Be Good Without You
TTITLE7=So Little Time 
TTITLE8=If I Could Be With You
TTITLE9=And Then She Stopped
TTITLE10=I Understand
TTITLE11=Meet Me Where They Play The Blues
TTITLE12=My Honey's Lovin' Arms
EXTD=YEAR: 2003
EXTT0=
EXTT1=
EXTT2=
EXTT3=
EXTT4=
EXTT5=
EXTT6=
EXTT7=
EXTT8=
EXTT9=
EXTT10=
EXTT11=
EXTT12=
PLAYORDER=
